<?xml version="1.0" standalone="no"?>
<svg t="1700231956448" class="icon" viewBox="0 0 1000 1000" version="1.1"
    xmlns="http://www.w3.org/2000/svg" p-id="18830" xmlns:xlink="http://www.w3.org/1999/xlink"
    width="137.75" height="128">
    <path
        d="M502.28607865 72.25290564a43.04471292 43.04471292 0 0 1 46.78691421-42.88329597 538.05891683 538.05891683 0 0 1 299.1526866 123.9149683 43.04471292 43.04471292 0 0 1 2.762933 63.40486416l-266.66200017 266.66199862a43.04471292 43.04471292 0 0 1-48.38494837 8.68427071 80.70883689 80.70883689 0 0 0-5.58236088-2.31365316 43.04471292 43.04471292 0 0 1-28.07322439-40.35441923z"
        fill="#391085" p-id="18831"></path>
    <path
        d="M807.68025022 259.9951131a43.04471292 43.04471292 0 0 1 63.74383943 3.16916661 477.07801046 477.07801046 0 0 1 105.5886826 254.91348341 43.04471292 43.04471292 0 0 1-42.83218055 47.31421126l-315.86748804 0a43.04471292 43.04471292 0 0 1-40.35710893-28.07322438 80.70883689 80.70883689 0 0 0-2.31365312-5.5823609 43.04471292 43.04471292 0 0 1 8.68696196-48.38763807z"
        fill="#531DAB" p-id="18832"></path>
    <path
        d="M903.52737513 565.39197438a43.04471292 43.04471292 0 0 1 42.79989625 47.63704669 446.58890211 446.58890211 0 0 1-96.37173228 232.66474684 43.04471292 43.04471292 0 0 1-63.94830265 3.416673l-201.67793288-201.67524319a43.04471292 43.04471292 0 0 1-8.68696197-48.38763809 80.70883689 80.70883689 0 0 0 2.31365313-5.58236087 43.04471292 43.04471292 0 0 1 40.35441925-28.07322438z"
        fill="#722ED1" p-id="18833"></path>
    <path
        d="M764.31270189 827.41859607a43.04471292 43.04471292 0 0 1-3.71260665 64.18504858 416.0997922 416.0997922 0 0 1-210.30032778 87.10904909 43.04471292 43.04471292 0 0 1-48.01368881-42.75954278l0-254.53415157a43.04471292 43.04471292 0 0 1 28.07322439-40.35710895 80.70883689 80.70883689 0 0 0 5.58236088-2.31365312 43.04471292 43.04471292 0 0 1 48.38763965 8.6869604z"
        fill="#9254DE" p-id="18834"></path>
    <path
        d="M502.28607865 905.24074831a43.04471292 43.04471292 0 0 1-48.45220516 42.70304482 385.60799415 385.60799415 0 0 1-187.79063316-77.78448695 43.04471292 43.04471292 0 0 1-4.06772485-64.45945835l158.27003112-158.26465011a43.04471292 43.04471292 0 0 1 48.3849468-8.68696041 80.70883689 80.70883689 0 0 0 5.58236245 2.31365313 43.04471292 43.04471292 0 0 1 28.0732228 40.35441924z"
        fill="#B37FEB" p-id="18835"></path>
    <path
        d="M283.72654645 783.95150659a43.04471292 43.04471292 0 0 1-64.78229377-4.4874117 355.11888579 355.11888579 0 0 1-68.38190762-165.08992698 43.04471292 43.04471292 0 0 1 42.63309831-48.98219353l193.0636103 0a43.04471292 43.04471292 0 0 1 40.3571105 28.07322438 80.70883689 80.70883689 0 0 0 2.31365311 5.58236087 43.04471292 43.04471292 0 0 1-8.68696198 48.38763809z"
        fill="#D3ADF7" p-id="18836"></path>
    <path
        d="M224.01007843 565.39197438a43.04471292 43.04471292 0 0 1-42.53893818-49.62517469 324.62977746 324.62977746 0 0 1 58.87440618-142.13364221 43.04471292 43.04471292 0 0 1 65.16969629-5.01201905l114.72761258 114.7276126a43.04471292 43.04471292 0 0 1 8.68696198 48.38763807 80.70883689 80.70883689 0 0 0-2.31365311 5.58236089 43.04471292 43.04471292 0 0 1-40.35441922 28.07322439z"
        fill="#EFDBFF" p-id="18837"></path>
    <path
        d="M327.36312509 390.46902081a43.04471292 43.04471292 0 0 1 5.66845033-65.64318825 294.13797785 294.13797785 0 0 1 118.83031303-49.21893952 43.04471292 43.04471292 0 0 1 50.4241902 42.40711275l0 131.35094357a43.04471292 43.04471292 0 0 1-28.0732228 40.35710894 80.70883689 80.70883689 0 0 0-5.58236245 2.31365315 43.04471292 43.04471292 0 0 1-48.3876381-8.68696042z"
        fill="#F9F0FF" p-id="18838"></path>
    <path d="M138.45063942 1600.29449592l26.90294613 0 0 26.90294614L138.45063942 1627.19744206z"
        fill-opacity="0" p-id="18839"></path>
</svg>